<svg width="82" height="75" viewBox="0 0 82 75" fill="none" xmlns="http://www.w3.org/2000/svg">
<ellipse cx="37.2727" cy="37.4998" rx="37.4998" ry="37.2727" transform="rotate(90 37.2727 37.4998)" fill="#FBF7DC"/>
<line x1="58.891" y1="37.4904" x2="11.1819" y2="37.4904" stroke="#2E2E2E" stroke-width="2.98182"/>
<path d="M36.5273 56.2501C36.5273 53.7878 37.1154 51.3497 38.258 49.0748C39.4006 46.8 41.0753 44.733 43.1866 42.9919C45.2979 41.2508 47.8043 39.8697 50.5628 38.9275C53.3213 37.9852 56.2779 37.5002 59.2636 37.5002L59.2636 40.6877C56.7854 40.6877 54.3315 41.0902 52.0419 41.8723C49.7524 42.6544 47.672 43.8007 45.9197 45.2458C44.1673 46.6909 42.7773 48.4065 41.8289 50.2946C40.8806 52.1828 40.3925 54.2064 40.3925 56.2501H36.5273Z" fill="#2E2E2E"/>
<path d="M36.5273 18.7499C36.5273 21.2122 37.1154 23.6503 38.258 25.9252C39.4006 28.2 41.0753 30.267 43.1866 32.0081C45.2979 33.7492 47.8043 35.1303 50.5628 36.0725C53.3213 37.0148 56.2779 37.4998 59.2636 37.4998L59.2636 34.3123C56.7854 34.3123 54.3315 33.9098 52.0419 33.1277C49.7524 32.3456 47.672 31.1993 45.9197 29.7542C44.1673 28.3091 42.7773 26.5935 41.8289 24.7054C40.8806 22.8172 40.3925 20.7936 40.3925 18.7499H36.5273Z" fill="#2E2E2E"/>
</svg>
