<svg width="250" height="228" viewBox="0 0 250 228" fill="none" xmlns="http://www.w3.org/2000/svg">
<circle cx="113.636" cy="113.636" r="113.636" transform="rotate(90 113.636 113.636)" fill="#2E2E2E"/>
<line x1="179.545" y1="113.391" x2="34.0909" y2="113.391" stroke="#FBF7DC" stroke-width="8.6"/>
<path d="M111.364 170.455C111.364 162.993 113.157 155.605 116.64 148.711C120.124 141.818 125.23 135.554 131.666 130.278C138.103 125.002 145.745 120.817 154.155 117.961C162.565 115.106 171.579 113.636 180.682 113.636V123.295C173.126 123.295 165.645 124.515 158.664 126.885C151.684 129.255 145.342 132.729 139.999 137.108C134.657 141.487 130.419 146.686 127.527 152.408C124.636 158.129 123.148 164.262 123.148 170.455H111.364Z" fill="#FBF7DC"/>
<path d="M111.364 56.8182C111.364 64.2796 113.157 71.6681 116.64 78.5616C120.124 85.4551 125.23 91.7186 131.666 96.9947C138.103 102.271 145.745 106.456 154.155 109.311C162.565 112.167 171.579 113.636 180.682 113.636V103.977C173.126 103.977 165.645 102.757 158.664 100.387C151.684 98.0175 145.342 94.5438 139.999 90.1647C134.657 85.7856 130.419 80.5868 127.527 74.8652C124.636 69.1436 123.148 63.0112 123.148 56.8182H111.364Z" fill="#FBF7DC"/>
</svg>
