<svg width="110" height="100" viewBox="0 0 110 100" fill="none" xmlns="http://www.w3.org/2000/svg">
<circle cx="50" cy="50" r="50" transform="rotate(90 50 50)" fill="#FBF7DC"/>
<line x1="79" y1="50" x2="15" y2="50" stroke="#2E2E2E" stroke-width="4"/>
<path d="M49 75C49 71.717 49.7889 68.4661 51.3217 65.4329C52.8544 62.3998 55.1011 59.6438 57.9332 57.3223C60.7654 55.0009 64.1277 53.1594 67.8282 51.903C71.5286 50.6466 75.4947 50 79.5 50V54.25C76.1756 54.25 72.8837 54.7867 69.8124 55.8295C66.741 56.8723 63.9503 58.4007 61.5996 60.3275C59.2489 62.2543 57.3842 64.5418 56.112 67.0593C54.8398 69.5768 54.185 72.2751 54.185 75H49Z" fill="#2E2E2E"/>
<path d="M49 25C49 28.283 49.7889 31.5339 51.3217 34.5671C52.8544 37.6002 55.1011 40.3562 57.9332 42.6777C60.7654 44.9991 64.1277 46.8406 67.8282 48.097C71.5286 49.3534 75.4947 50 79.5 50V45.75C76.1756 45.75 72.8837 45.2133 69.8124 44.1705C66.741 43.1277 63.9503 41.5993 61.5996 39.6725C59.2489 37.7457 57.3842 35.4582 56.112 32.9407C54.8398 30.4232 54.185 27.7249 54.185 25H49Z" fill="#2E2E2E"/>
</svg>
