<svg width="63" height="60" viewBox="0 0 63 60" fill="none" xmlns="http://www.w3.org/2000/svg">
<path fill-rule="evenodd" clip-rule="evenodd" d="M20.6686 0.167637C19.9345 0.379113 19.0501 1.07151 18.6166 1.77254C18.4085 2.11148 17.6051 3.53096 16.8334 4.92436C16.0588 6.31776 14.426 9.22626 13.2035 11.3844C11.9781 13.5426 10.9781 15.3676 10.981 15.4401C10.981 15.5125 11.322 15.7559 11.7382 15.9847C12.5792 16.4424 16.0588 18.4876 20.8393 21.3295C22.5675 22.3578 24.0472 23.1777 24.1253 23.1516C24.2351 23.1139 26.8275 18.7947 29.0703 14.9183L29.3622 14.4113L28.7899 13.3974C28.0761 12.1373 26.0964 8.40893 24.712 5.72032C22.4057 1.24755 21.6399 -0.030008 21.2815 0.0105578C21.2179 0.0192487 20.9402 0.0894201 20.6686 0.167637ZM25.0615 0.442839L24.6367 0.883167L25.9748 3.51935C26.7118 4.97067 28.2926 7.98055 29.492 10.2111C32.4746 15.7616 33.6653 18.0388 33.6653 18.1982C33.6653 18.2735 33.0093 18.6588 32.2087 19.0528C31.4081 19.4468 30.6827 19.8523 30.5989 19.9537C30.4775 20.0985 32.0324 20.1275 38.4451 20.0985L46.4423 20.0609L46.6244 19.6988C46.7227 19.4989 47.1302 18.5806 47.5262 17.6564C47.925 16.7294 48.4423 15.5562 48.6735 15.0493C50.2313 11.6396 51.6012 8.40092 51.4856 8.40092C51.4394 8.40092 50.4105 8.92236 49.1996 9.55968C47.9887 10.197 46.928 10.7184 46.8442 10.7184C46.7603 10.7184 45.5436 8.69349 44.1391 6.21668C42.7316 3.73987 41.379 1.48027 41.1305 1.19638C40.879 0.912489 40.3501 0.527204 39.9513 0.341832L39.2288 0.00289689L32.3561 0H25.4834L25.0615 0.442839ZM51.2949 19.8202C50.1418 20.4402 47.7372 21.7003 45.9482 22.6215C44.1592 23.5456 41.9685 24.6812 41.0813 25.1475L39.4628 25.9934L40.1276 27.2275C41.4252 29.6348 44.2951 34.7741 46.6823 38.9627C46.795 39.1626 46.8991 39.348 46.9106 39.374C46.9251 39.4001 47.5436 39.3509 48.2835 39.264C52.2718 38.7976 61.6158 37.8039 62.0087 37.8039C62.0665 37.8039 62.3122 37.6359 62.5549 37.4302C62.9249 37.1173 63 36.9493 63 36.4366C63 35.695 62.8699 35.4371 60.0868 30.6341C57.8209 26.7233 54.7892 21.2365 54.0205 19.6636C53.7604 19.1247 53.5118 18.6873 53.4685 18.6902C53.4251 18.6931 52.4481 19.2003 51.2949 19.8202ZM14.1574 22.3087C12.7673 22.4477 9.70954 22.7374 7.36565 22.9489C5.02175 23.1604 2.88021 23.3805 2.61142 23.4385L2.11721 23.5428L3.75587 24.49C4.65761 25.0114 5.45526 25.5358 5.53324 25.6574C5.63728 25.8226 5.09395 26.8857 3.31076 29.9941C-0.218024 36.1471 -0.0417138 35.7589 0.024726 37.2248C0.0883078 38.6182 0.108538 38.6645 2.36573 42.5029C3.06514 43.6936 4.22694 45.7359 4.94949 47.0452C6.04775 49.0325 6.34251 49.4584 6.75003 49.6553C7.69217 50.1044 7.51594 50.3274 12.091 42.8013C15.744 36.7931 17.666 33.6788 17.8278 33.5112C17.9463 33.3895 18.6255 33.7342 20.4434 34.8321C21.7959 35.6491 22.9231 36.2574 22.952 36.1821C22.978 36.1097 22.793 35.5245 22.5387 34.8814C21.9867 33.4995 18.8192 25.1011 18.1602 23.2849L17.7035 22.0161L17.1949 22.0335C16.9145 22.0451 15.5475 22.1667 14.1574 22.3087ZM36.5931 41.4658L32.5094 45.1072V52.6101L33.4862 53.511C34.7781 54.7045 38.4832 57.9664 40.0612 59.299L40.8906 60V55.6315L46.7084 55.591C54.1707 55.5359 53.6071 55.7908 55.9567 51.4194C59.8266 44.2265 60.4855 43.0185 60.9971 42.1694C61.3034 41.6653 61.552 41.2076 61.5491 41.1555C61.5462 41.1062 61.3901 40.8716 61.1994 40.6398L60.8526 40.214L57.3382 40.5384C55.4047 40.718 52.8817 40.9556 51.7285 41.0686C49.8037 41.2598 47.0495 41.5031 42.7695 41.8594C41.8562 41.9376 41.0586 42.0014 41.0008 42.0014C40.9401 42.0043 40.891 41.0599 40.891 39.904C40.891 38.7482 40.8418 37.8096 40.784 37.8125C40.7233 37.8183 38.8358 39.4612 36.5931 41.4658ZM15.9205 40.6663C15.7644 40.8836 14.9061 42.2683 14.013 43.7428C13.1171 45.2173 11.7587 47.416 10.9958 48.6328C8.756 52.1902 8.6866 52.3118 8.59123 52.8767C8.40916 53.9573 9.37734 55.0958 10.7761 55.4492C11.1056 55.5332 15.2297 55.6143 20.66 55.6433L29.9808 55.6926L30.0184 47.9784L30.0559 40.2672H16.2005L15.9205 40.6663Z" fill="#2E2E2E"/>
</svg>
